<svg xmlns="http://www.w3.org/2000/svg" xmlns:xlink="http://www.w3.org/1999/xlink" width="1587" zoomAndPan="magnify" viewBox="0 0 1190.25 1683.749949" height="2245" preserveAspectRatio="xMidYMid meet" version="1.0"><defs><clipPath id="d9196db07c"><path d="M 0 0.40625 L 1189.5 0.40625 L 1189.5 1683.09375 L 0 1683.09375 Z M 0 0.40625 " clip-rule="nonzero"/></clipPath><clipPath id="3cbab488f7"><path d="M 55.742188 302.605469 L 1134.3125 302.605469 L 1134.3125 1381 L 55.742188 1381 Z M 55.742188 302.605469 " clip-rule="nonzero"/></clipPath></defs><g clip-path="url(#d9196db07c)"><path fill="#ffffff" d="M 0 0.40625 L 1189.5 0.40625 L 1189.5 1683.09375 L 0 1683.09375 Z M 0 0.40625 " fill-opacity="1" fill-rule="nonzero"/><path fill="#ffffff" d="M 0 0.40625 L 1189.5 0.40625 L 1189.5 1683.09375 L 0 1683.09375 Z M 0 0.40625 " fill-opacity="1" fill-rule="nonzero"/></g><path fill="#000000" d="M 595.027344 524.429688 C 493.285156 524.429688 410.230469 607.121094 410.230469 708.867188 C 410.230469 810.972656 493.285156 893.664062 595.027344 893.664062 C 696.773438 893.664062 779.824219 810.972656 779.824219 708.867188 C 779.824219 607.121094 696.773438 524.429688 595.027344 524.429688 Z M 595.027344 524.429688 " fill-opacity="1" fill-rule="nonzero"/><g clip-path="url(#3cbab488f7)"><path fill="#000000" d="M 594.667969 302.964844 C 297.703125 302.964844 55.742188 544.566406 55.742188 841.890625 C 55.742188 1007.273438 130.882812 1155.394531 248.445312 1254.265625 C 248.445312 1254.265625 248.445312 1254.265625 248.445312 1254.625 C 342.285156 1333.359375 463.082031 1380.816406 594.667969 1380.816406 C 782.339844 1380.816406 953.472656 1285.902344 1052.703125 1126.632812 C 1106.269531 1041.066406 1134.3125 942.917969 1134.3125 841.890625 C 1134.3125 740.867188 1106.269531 642.355469 1052.703125 557.148438 C 953.472656 397.878906 782.339844 302.964844 594.667969 302.964844 Z M 991.941406 1088.523438 C 974.683594 1116.207031 954.550781 1140.65625 932.621094 1163.664062 C 877.972656 1051.492188 761.847656 976.710938 633.496094 976.710938 L 556.558594 976.710938 C 467.398438 976.710938 383.628906 1011.585938 320.710938 1074.503906 C 294.464844 1100.390625 273.613281 1130.949219 257.433594 1164.023438 C 177.261719 1080.253906 127.648438 967.003906 127.648438 841.890625 C 127.648438 584.472656 337.25 374.871094 594.667969 374.871094 C 757.53125 374.871094 905.65625 457.199219 991.941406 595.257812 C 1037.960938 669.320312 1062.40625 754.527344 1062.40625 841.890625 C 1062.40625 929.253906 1037.960938 1014.460938 991.941406 1088.523438 Z M 991.941406 1088.523438 " fill-opacity="1" fill-rule="nonzero"/></g></svg>