<svg xmlns="http://www.w3.org/2000/svg" xmlns:xlink="http://www.w3.org/1999/xlink" width="1587" zoomAndPan="magnify" viewBox="0 0 1190.25 1683.749949" height="2245" preserveAspectRatio="xMidYMid meet" version="1.0"><defs><clipPath id="16d4cd1b6f"><path d="M 0 0.40625 L 1189.5 0.40625 L 1189.5 1683.09375 L 0 1683.09375 Z M 0 0.40625 " clip-rule="nonzero"/></clipPath><clipPath id="09ed9dd4d4"><path d="M 99 242.964844 L 1091 242.964844 L 1091 1440.710938 L 99 1440.710938 Z M 99 242.964844 " clip-rule="nonzero"/></clipPath></defs><g clip-path="url(#16d4cd1b6f)"><path fill="#ffffff" d="M 0 0.40625 L 1189.5 0.40625 L 1189.5 1683.09375 L 0 1683.09375 Z M 0 0.40625 " fill-opacity="1" fill-rule="nonzero"/><path fill="#ffffff" d="M 0 0.40625 L 1189.5 0.40625 L 1189.5 1683.09375 L 0 1683.09375 Z M 0 0.40625 " fill-opacity="1" fill-rule="nonzero"/></g><g clip-path="url(#09ed9dd4d4)"><path fill="#000000" d="M 1090.652344 1390.875 L 1017.808594 579.121094 C 1015.890625 556.835938 997.199219 540.066406 974.917969 540.066406 L 824.675781 540.066406 L 824.675781 472.019531 C 824.4375 345.753906 721.640625 242.964844 595.363281 242.964844 C 469.085938 242.964844 366.289062 345.753906 366.289062 472.019531 L 366.289062 539.824219 L 215.808594 539.824219 C 193.523438 539.824219 175.074219 556.835938 172.917969 578.878906 L 99.832031 1393.988281 C 98.875 1405.96875 102.710938 1417.949219 110.855469 1426.8125 C 119.003906 1435.679688 130.503906 1440.710938 142.484375 1440.710938 L 1048 1440.710938 C 1071.722656 1440.710938 1090.890625 1421.542969 1090.890625 1397.824219 C 1091.132812 1395.667969 1090.890625 1393.269531 1090.652344 1390.875 Z M 452.3125 472.019531 C 452.3125 393.191406 516.527344 328.742188 595.363281 328.742188 C 674.195312 328.742188 738.414062 392.953125 738.414062 472.019531 L 738.414062 539.824219 L 452.3125 539.824219 Z M 189.691406 1354.933594 L 255.105469 625.839844 L 366.289062 625.839844 L 366.289062 702.75 C 366.289062 726.472656 385.457031 745.640625 409.179688 745.640625 C 432.902344 745.640625 452.070312 726.472656 452.070312 702.75 L 452.070312 625.839844 L 738.414062 625.839844 L 738.414062 702.75 C 738.414062 726.472656 757.582031 745.640625 781.304688 745.640625 C 805.027344 745.640625 824.195312 726.472656 824.195312 702.75 L 824.195312 625.839844 L 935.621094 625.839844 L 1001.035156 1354.933594 Z M 189.691406 1354.933594 " fill-opacity="1" fill-rule="nonzero"/></g></svg>