<svg xmlns="http://www.w3.org/2000/svg" xmlns:xlink="http://www.w3.org/1999/xlink" width="1587" zoomAndPan="magnify"
     viewBox="0 0 1190.25 1683.749949" height="2245" preserveAspectRatio="xMidYMid meet" version="1.0">
    <defs>
        <clipPath id="2bbee78e49">
            <path d="M 0 0.40625 L 1189.5 0.40625 L 1189.5 1683.09375 L 0 1683.09375 Z M 0 0.40625 "
                  clip-rule="nonzero"/>
        </clipPath>
        <clipPath id="6a53fc87a3">
            <path d="M 36.054688 229.484375 L 1153.601562 229.484375 L 1153.601562 1454 L 36.054688 1454 Z M 36.054688 229.484375 "
                  clip-rule="nonzero"/>
        </clipPath>
    </defs>
    <g clip-path="url(#6a53fc87a3)">
        <path fill="#000000"
              d="M 1100.382812 442.617188 L 860.910156 442.617188 L 860.910156 405.089844 C 860.90625 402.21875 860.832031 399.351562 860.6875 396.488281 C 860.542969 393.621094 860.328125 390.761719 860.042969 387.90625 C 859.757812 385.050781 859.402344 382.203125 858.976562 379.367188 C 858.554688 376.527344 858.058594 373.703125 857.496094 370.890625 C 856.933594 368.074219 856.300781 365.277344 855.601562 362.496094 C 854.902344 359.710938 854.136719 356.949219 853.300781 354.203125 C 852.464844 351.457031 851.5625 348.734375 850.59375 346.035156 C 849.625 343.335938 848.589844 340.660156 847.492188 338.007812 C 846.390625 335.359375 845.226562 332.738281 844 330.144531 C 842.773438 327.550781 841.480469 324.988281 840.125 322.460938 C 838.773438 319.929688 837.359375 317.4375 835.882812 314.976562 C 834.40625 312.515625 832.871094 310.09375 831.277344 307.707031 C 829.683594 305.320312 828.03125 302.976562 826.320312 300.671875 C 824.613281 298.367188 822.847656 296.109375 821.027344 293.890625 C 819.207031 291.671875 817.332031 289.5 815.40625 287.375 C 813.480469 285.25 811.503906 283.171875 809.472656 281.144531 C 807.445312 279.113281 805.367188 277.136719 803.242188 275.210938 C 801.117188 273.28125 798.945312 271.410156 796.730469 269.585938 C 794.511719 267.765625 792.253906 266 789.949219 264.292969 C 787.644531 262.582031 785.300781 260.929688 782.917969 259.335938 C 780.53125 257.738281 778.109375 256.203125 775.652344 254.726562 C 773.191406 253.25 770.695312 251.835938 768.167969 250.480469 C 765.640625 249.128906 763.078125 247.835938 760.484375 246.609375 C 757.894531 245.378906 755.273438 244.214844 752.625 243.117188 C 749.972656 242.015625 747.300781 240.980469 744.597656 240.011719 C 741.898438 239.042969 739.175781 238.140625 736.433594 237.304688 C 733.6875 236.46875 730.925781 235.703125 728.144531 235.003906 C 725.363281 234.300781 722.566406 233.671875 719.753906 233.109375 C 716.9375 232.542969 714.113281 232.050781 711.277344 231.625 C 708.441406 231.203125 705.59375 230.847656 702.742188 230.5625 C 699.886719 230.277344 697.027344 230.0625 694.160156 229.917969 C 691.296875 229.773438 688.429688 229.699219 685.5625 229.691406 L 504.09375 229.691406 C 501.226562 229.699219 498.359375 229.773438 495.492188 229.917969 C 492.628906 230.0625 489.769531 230.277344 486.914062 230.5625 C 484.058594 230.847656 481.214844 231.203125 478.378906 231.625 C 475.539062 232.050781 472.714844 232.542969 469.902344 233.109375 C 467.089844 233.671875 464.292969 234.300781 461.511719 235.003906 C 458.730469 235.703125 455.964844 236.46875 453.222656 237.304688 C 450.476562 238.140625 447.757812 239.042969 445.054688 240.011719 C 442.355469 240.980469 439.679688 242.015625 437.03125 243.117188 C 434.382812 244.214844 431.761719 245.378906 429.167969 246.609375 C 426.578125 247.835938 424.015625 249.128906 421.488281 250.480469 C 418.957031 251.835938 416.464844 253.25 414.003906 254.726562 C 411.542969 256.203125 409.121094 257.738281 406.738281 259.335938 C 404.355469 260.929688 402.007812 262.582031 399.707031 264.292969 C 397.402344 266 395.140625 267.765625 392.925781 269.585938 C 390.707031 271.410156 388.535156 273.28125 386.410156 275.210938 C 384.285156 277.136719 382.210938 279.113281 380.179688 281.144531 C 378.152344 283.171875 376.175781 285.25 374.25 287.375 C 372.324219 289.5 370.449219 291.671875 368.628906 293.890625 C 366.808594 296.109375 365.042969 298.367188 363.335938 300.671875 C 361.625 302.976562 359.972656 305.320312 358.378906 307.707031 C 356.785156 310.09375 355.25 312.515625 353.773438 314.976562 C 352.296875 317.4375 350.882812 319.929688 349.527344 322.460938 C 348.175781 324.988281 346.882812 327.550781 345.65625 330.144531 C 344.425781 332.738281 343.261719 335.359375 342.164062 338.007812 C 341.0625 340.660156 340.03125 343.335938 339.0625 346.035156 C 338.09375 348.734375 337.191406 351.457031 336.355469 354.203125 C 335.519531 356.949219 334.753906 359.710938 334.050781 362.496094 C 333.351562 365.277344 332.722656 368.074219 332.160156 370.890625 C 331.597656 373.703125 331.101562 376.527344 330.679688 379.367188 C 330.253906 382.203125 329.898438 385.050781 329.613281 387.90625 C 329.328125 390.761719 329.113281 393.621094 328.96875 396.488281 C 328.824219 399.351562 328.75 402.21875 328.746094 405.089844 L 328.746094 442.617188 L 89.269531 442.617188 C 87.527344 442.617188 85.789062 442.703125 84.054688 442.871094 C 82.320312 443.042969 80.597656 443.300781 78.890625 443.640625 C 77.179688 443.980469 75.492188 444.402344 73.824219 444.910156 C 72.15625 445.414062 70.515625 446 68.90625 446.667969 C 67.296875 447.335938 65.722656 448.082031 64.183594 448.902344 C 62.648438 449.722656 61.15625 450.617188 59.707031 451.585938 C 58.257812 452.554688 56.859375 453.59375 55.511719 454.699219 C 54.164062 455.804688 52.875 456.976562 51.640625 458.207031 C 50.410156 459.441406 49.238281 460.730469 48.132812 462.078125 C 47.027344 463.425781 45.992188 464.824219 45.023438 466.273438 C 44.054688 467.722656 43.160156 469.21875 42.339844 470.753906 C 41.515625 472.292969 40.773438 473.867188 40.105469 475.476562 C 39.4375 477.085938 38.851562 478.726562 38.347656 480.394531 C 37.839844 482.0625 37.417969 483.753906 37.078125 485.460938 C 36.738281 487.171875 36.480469 488.894531 36.3125 490.628906 C 36.140625 492.363281 36.054688 494.105469 36.054688 495.847656 C 36.054688 497.589844 36.140625 499.328125 36.3125 501.066406 C 36.480469 502.800781 36.738281 504.523438 37.078125 506.230469 C 37.417969 507.941406 37.839844 509.632812 38.347656 511.300781 C 38.851562 512.96875 39.4375 514.605469 40.105469 516.21875 C 40.773438 517.828125 41.515625 519.402344 42.339844 520.941406 C 43.160156 522.476562 44.054688 523.972656 45.023438 525.421875 C 45.992188 526.871094 47.027344 528.269531 48.132812 529.617188 C 49.238281 530.964844 50.410156 532.253906 51.640625 533.488281 C 52.875 534.71875 54.164062 535.890625 55.511719 536.996094 C 56.859375 538.101562 58.257812 539.136719 59.707031 540.105469 C 61.15625 541.074219 62.648438 541.972656 64.183594 542.792969 C 65.722656 543.613281 67.296875 544.359375 68.90625 545.027344 C 70.515625 545.691406 72.15625 546.28125 73.824219 546.785156 C 75.492188 547.292969 77.179688 547.714844 78.890625 548.054688 C 80.597656 548.394531 82.320312 548.652344 84.054688 548.820312 C 85.789062 548.992188 87.527344 549.078125 89.269531 549.078125 L 169.097656 549.078125 L 169.097656 1277.808594 C 169.101562 1280.691406 169.175781 1283.578125 169.320312 1286.457031 C 169.46875 1289.339844 169.683594 1292.214844 169.96875 1295.085938 C 170.257812 1297.957031 170.613281 1300.820312 171.039062 1303.671875 C 171.46875 1306.527344 171.964844 1309.367188 172.53125 1312.195312 C 173.097656 1315.023438 173.734375 1317.839844 174.4375 1320.636719 C 175.140625 1323.433594 175.914062 1326.210938 176.753906 1328.972656 C 177.59375 1331.730469 178.503906 1334.46875 179.476562 1337.183594 C 180.453125 1339.898438 181.492188 1342.589844 182.601562 1345.253906 C 183.707031 1347.917969 184.878906 1350.554688 186.113281 1353.160156 C 187.351562 1355.769531 188.648438 1358.34375 190.011719 1360.886719 C 191.375 1363.429688 192.796875 1365.9375 194.285156 1368.410156 C 195.769531 1370.882812 197.3125 1373.320312 198.917969 1375.714844 C 200.523438 1378.113281 202.1875 1380.46875 203.90625 1382.785156 C 205.625 1385.101562 207.402344 1387.375 209.234375 1389.601562 C 211.066406 1391.832031 212.953125 1394.011719 214.890625 1396.148438 C 216.828125 1398.285156 218.820312 1400.375 220.859375 1402.410156 C 222.902344 1404.449219 224.992188 1406.4375 227.128906 1408.375 C 229.269531 1410.308594 231.453125 1412.191406 233.683594 1414.019531 C 235.914062 1415.851562 238.1875 1417.621094 240.507812 1419.339844 C 242.824219 1421.058594 245.183594 1422.714844 247.582031 1424.316406 C 249.980469 1425.917969 252.417969 1427.460938 254.894531 1428.945312 C 257.367188 1430.425781 259.878906 1431.847656 262.421875 1433.203125 C 264.964844 1434.5625 267.542969 1435.859375 270.148438 1437.089844 C 272.757812 1438.324219 275.394531 1439.492188 278.058594 1440.59375 C 280.726562 1441.699219 283.414062 1442.734375 286.132812 1443.707031 C 288.847656 1444.675781 291.585938 1445.582031 294.347656 1446.417969 C 297.105469 1447.253906 299.886719 1448.023438 302.683594 1448.722656 C 305.480469 1449.425781 308.296875 1450.054688 311.125 1450.617188 C 313.953125 1451.179688 316.796875 1451.671875 319.648438 1452.09375 C 322.5 1452.519531 325.363281 1452.871094 328.234375 1453.152344 C 331.105469 1453.4375 333.980469 1453.648438 336.859375 1453.789062 C 339.742188 1453.929688 342.625 1454 345.507812 1454 L 844.414062 1454 C 847.292969 1453.996094 850.175781 1453.921875 853.050781 1453.777344 C 855.929688 1453.632812 858.800781 1453.414062 861.671875 1453.128906 C 864.539062 1452.84375 867.394531 1452.488281 870.246094 1452.058594 C 873.09375 1451.632812 875.933594 1451.136719 878.757812 1450.570312 C 881.585938 1450.007812 884.394531 1449.371094 887.1875 1448.667969 C 889.984375 1447.964844 892.757812 1447.195312 895.515625 1446.355469 C 898.273438 1445.515625 901.007812 1444.609375 903.71875 1443.636719 C 906.433594 1442.664062 909.117188 1441.625 911.78125 1440.519531 C 914.441406 1439.414062 917.074219 1438.242188 919.679688 1437.011719 C 922.28125 1435.777344 924.855469 1434.480469 927.394531 1433.117188 C 929.9375 1431.757812 932.441406 1430.335938 934.914062 1428.855469 C 937.382812 1427.371094 939.816406 1425.828125 942.210938 1424.226562 C 944.605469 1422.625 946.960938 1420.964844 949.277344 1419.246094 C 951.589844 1417.527344 953.859375 1415.753906 956.085938 1413.925781 C 958.316406 1412.097656 960.496094 1410.214844 962.628906 1408.277344 C 964.765625 1406.34375 966.851562 1404.355469 968.890625 1402.316406 C 970.925781 1400.28125 972.914062 1398.191406 974.847656 1396.058594 C 976.785156 1393.921875 978.667969 1391.738281 980.496094 1389.511719 C 982.324219 1387.285156 984.097656 1385.011719 985.8125 1382.699219 C 987.53125 1380.382812 989.191406 1378.027344 990.792969 1375.632812 C 992.394531 1373.238281 993.9375 1370.804688 995.417969 1368.332031 C 996.902344 1365.859375 998.320312 1363.355469 999.683594 1360.8125 C 1001.042969 1358.269531 1002.339844 1355.699219 1003.574219 1353.09375 C 1004.804688 1350.488281 1005.976562 1347.855469 1007.078125 1345.191406 C 1008.183594 1342.53125 1009.222656 1339.84375 1010.195312 1337.128906 C 1011.167969 1334.417969 1012.074219 1331.683594 1012.914062 1328.925781 C 1013.753906 1326.167969 1014.523438 1323.390625 1015.226562 1320.59375 C 1015.929688 1317.800781 1016.566406 1314.988281 1017.132812 1312.164062 C 1017.695312 1309.335938 1018.191406 1306.5 1018.617188 1303.648438 C 1019.042969 1300.796875 1019.402344 1297.9375 1019.6875 1295.070312 C 1019.972656 1292.203125 1020.1875 1289.328125 1020.335938 1286.449219 C 1020.480469 1283.570312 1020.554688 1280.691406 1020.558594 1277.808594 L 1020.558594 549.078125 L 1100.382812 549.078125 C 1102.128906 549.078125 1103.867188 548.992188 1105.601562 548.820312 C 1107.335938 548.652344 1109.054688 548.394531 1110.765625 548.054688 C 1112.476562 547.714844 1114.164062 547.292969 1115.832031 546.785156 C 1117.5 546.28125 1119.140625 545.691406 1120.75 545.027344 C 1122.359375 544.359375 1123.933594 543.613281 1125.46875 542.792969 C 1127.007812 541.972656 1128.5 541.074219 1129.949219 540.105469 C 1131.398438 539.136719 1132.796875 538.101562 1134.144531 536.996094 C 1135.492188 535.890625 1136.78125 534.71875 1138.015625 533.488281 C 1139.246094 532.253906 1140.414062 530.964844 1141.519531 529.617188 C 1142.625 528.269531 1143.664062 526.871094 1144.632812 525.421875 C 1145.601562 523.972656 1146.496094 522.476562 1147.316406 520.941406 C 1148.136719 519.402344 1148.882812 517.828125 1149.550781 516.21875 C 1150.214844 514.605469 1150.804688 512.96875 1151.308594 511.300781 C 1151.816406 509.632812 1152.238281 507.941406 1152.578125 506.230469 C 1152.917969 504.523438 1153.171875 502.800781 1153.34375 501.066406 C 1153.515625 499.328125 1153.601562 497.589844 1153.601562 495.847656 C 1153.601562 494.105469 1153.515625 492.363281 1153.34375 490.628906 C 1153.171875 488.894531 1152.917969 487.171875 1152.578125 485.460938 C 1152.238281 483.753906 1151.816406 482.0625 1151.308594 480.394531 C 1150.804688 478.726562 1150.214844 477.085938 1149.550781 475.476562 C 1148.882812 473.867188 1148.136719 472.292969 1147.316406 470.753906 C 1146.496094 469.21875 1145.601562 467.722656 1144.632812 466.273438 C 1143.664062 464.824219 1142.625 463.425781 1141.519531 462.078125 C 1140.414062 460.730469 1139.246094 459.441406 1138.015625 458.207031 C 1136.78125 456.976562 1135.492188 455.804688 1134.144531 454.699219 C 1132.796875 453.59375 1131.398438 452.554688 1129.949219 451.585938 C 1128.5 450.617188 1127.007812 449.722656 1125.46875 448.902344 C 1123.933594 448.082031 1122.359375 447.335938 1120.75 446.667969 C 1119.140625 446 1117.5 445.414062 1115.832031 444.910156 C 1114.164062 444.402344 1112.476562 443.980469 1110.765625 443.640625 C 1109.054688 443.300781 1107.335938 443.042969 1105.601562 442.871094 C 1103.867188 442.703125 1102.128906 442.617188 1100.382812 442.617188 Z M 435.179688 405.089844 C 435.179688 403.960938 435.207031 402.832031 435.261719 401.707031 C 435.316406 400.578125 435.398438 399.453125 435.511719 398.332031 C 435.621094 397.210938 435.757812 396.089844 435.925781 394.972656 C 436.089844 393.859375 436.28125 392.746094 436.503906 391.640625 C 436.722656 390.535156 436.96875 389.433594 437.242188 388.339844 C 437.519531 387.246094 437.816406 386.15625 438.144531 385.078125 C 438.472656 384 438.828125 382.929688 439.207031 381.867188 C 439.585938 380.804688 439.992188 379.75 440.425781 378.707031 C 440.855469 377.667969 441.3125 376.636719 441.792969 375.617188 C 442.277344 374.597656 442.785156 373.589844 443.316406 372.59375 C 443.847656 371.597656 444.402344 370.617188 444.984375 369.648438 C 445.5625 368.683594 446.164062 367.730469 446.792969 366.792969 C 447.417969 365.851562 448.070312 364.929688 448.742188 364.023438 C 449.414062 363.117188 450.105469 362.230469 450.820312 361.359375 C 451.535156 360.484375 452.273438 359.632812 453.03125 358.796875 C 453.789062 357.960938 454.566406 357.144531 455.363281 356.34375 C 456.160156 355.546875 456.976562 354.769531 457.8125 354.011719 C 458.648438 353.253906 459.503906 352.519531 460.375 351.800781 C 461.246094 351.085938 462.136719 350.394531 463.039062 349.71875 C 463.945312 349.046875 464.867188 348.398438 465.804688 347.773438 C 466.742188 347.144531 467.695312 346.542969 468.664062 345.960938 C 469.632812 345.382812 470.613281 344.828125 471.605469 344.292969 C 472.601562 343.761719 473.609375 343.253906 474.628906 342.773438 C 475.648438 342.289062 476.679688 341.832031 477.722656 341.402344 C 478.761719 340.96875 479.816406 340.566406 480.875 340.183594 C 481.9375 339.804688 483.007812 339.449219 484.089844 339.125 C 485.167969 338.796875 486.253906 338.496094 487.347656 338.222656 C 488.441406 337.945312 489.542969 337.699219 490.648438 337.480469 C 491.753906 337.257812 492.867188 337.066406 493.980469 336.902344 C 495.097656 336.734375 496.214844 336.597656 497.339844 336.488281 C 498.460938 336.375 499.585938 336.292969 500.710938 336.238281 C 501.839844 336.183594 502.964844 336.15625 504.09375 336.15625 L 685.5625 336.15625 C 686.691406 336.15625 687.816406 336.183594 688.941406 336.238281 C 690.070312 336.292969 691.195312 336.375 692.316406 336.488281 C 693.4375 336.597656 694.558594 336.734375 695.671875 336.902344 C 696.789062 337.066406 697.898438 337.257812 699.007812 337.480469 C 700.113281 337.699219 701.210938 337.945312 702.308594 338.222656 C 703.402344 338.496094 704.488281 338.796875 705.566406 339.125 C 706.644531 339.449219 707.714844 339.804688 708.777344 340.183594 C 709.839844 340.566406 710.890625 340.96875 711.933594 341.402344 C 712.976562 341.832031 714.007812 342.289062 715.027344 342.773438 C 716.046875 343.253906 717.054688 343.761719 718.046875 344.292969 C 719.042969 344.828125 720.023438 345.382812 720.992188 345.960938 C 721.957031 346.542969 722.910156 347.144531 723.847656 347.773438 C 724.785156 348.398438 725.707031 349.046875 726.613281 349.71875 C 727.519531 350.394531 728.410156 351.085938 729.28125 351.800781 C 730.152344 352.519531 731.007812 353.253906 731.84375 354.011719 C 732.679688 354.769531 733.496094 355.546875 734.292969 356.34375 C 735.089844 357.144531 735.867188 357.960938 736.625 358.796875 C 737.382812 359.632812 738.117188 360.484375 738.832031 361.359375 C 739.550781 362.230469 740.242188 363.117188 740.914062 364.023438 C 741.585938 364.929688 742.234375 365.851562 742.863281 366.792969 C 743.488281 367.730469 744.09375 368.683594 744.671875 369.648438 C 745.253906 370.617188 745.808594 371.597656 746.339844 372.59375 C 746.871094 373.589844 747.378906 374.597656 747.859375 375.617188 C 748.34375 376.636719 748.800781 377.667969 749.230469 378.707031 C 749.664062 379.75 750.070312 380.804688 750.449219 381.867188 C 750.828125 382.929688 751.183594 384 751.507812 385.078125 C 751.835938 386.15625 752.136719 387.246094 752.410156 388.339844 C 752.6875 389.433594 752.933594 390.535156 753.152344 391.640625 C 753.371094 392.746094 753.566406 393.859375 753.730469 394.972656 C 753.898438 396.089844 754.035156 397.210938 754.144531 398.332031 C 754.253906 399.453125 754.339844 400.578125 754.394531 401.707031 C 754.449219 402.832031 754.476562 403.960938 754.476562 405.089844 L 754.476562 442.617188 L 435.179688 442.617188 Z M 914.125 1277.808594 C 914.121094 1278.949219 914.089844 1280.085938 914.03125 1281.226562 C 913.96875 1282.363281 913.882812 1283.5 913.765625 1284.632812 C 913.652344 1285.769531 913.507812 1286.898438 913.335938 1288.027344 C 913.167969 1289.152344 912.96875 1290.277344 912.742188 1291.394531 C 912.519531 1292.511719 912.265625 1293.621094 911.984375 1294.726562 C 911.707031 1295.832031 911.398438 1296.929688 911.066406 1298.019531 C 910.730469 1299.109375 910.371094 1300.191406 909.984375 1301.265625 C 909.597656 1302.335938 909.1875 1303.398438 908.75 1304.453125 C 908.3125 1305.503906 907.847656 1306.546875 907.359375 1307.574219 C 906.871094 1308.605469 906.355469 1309.621094 905.816406 1310.625 C 905.277344 1311.632812 904.714844 1312.621094 904.128906 1313.601562 C 903.542969 1314.578125 902.929688 1315.539062 902.296875 1316.488281 C 901.664062 1317.433594 901.003906 1318.363281 900.324219 1319.28125 C 899.644531 1320.195312 898.945312 1321.09375 898.222656 1321.972656 C 897.496094 1322.855469 896.753906 1323.71875 895.988281 1324.5625 C 895.222656 1325.40625 894.4375 1326.234375 893.628906 1327.039062 C 892.824219 1327.84375 892 1328.628906 891.15625 1329.394531 C 890.3125 1330.160156 889.449219 1330.90625 888.566406 1331.628906 C 887.6875 1332.355469 886.789062 1333.054688 885.875 1333.734375 C 884.960938 1334.414062 884.027344 1335.074219 883.082031 1335.707031 C 882.132812 1336.339844 881.171875 1336.953125 880.195312 1337.539062 C 879.21875 1338.125 878.226562 1338.6875 877.222656 1339.226562 C 876.21875 1339.765625 875.203125 1340.28125 874.171875 1340.769531 C 873.144531 1341.257812 872.101562 1341.722656 871.050781 1342.160156 C 869.996094 1342.597656 868.9375 1343.011719 867.863281 1343.398438 C 866.792969 1343.785156 865.710938 1344.144531 864.621094 1344.476562 C 863.53125 1344.8125 862.433594 1345.117188 861.328125 1345.398438 C 860.222656 1345.679688 859.113281 1345.929688 857.996094 1346.15625 C 856.878906 1346.382812 855.753906 1346.582031 854.628906 1346.75 C 853.5 1346.921875 852.371094 1347.066406 851.238281 1347.179688 C 850.105469 1347.296875 848.96875 1347.382812 847.828125 1347.445312 C 846.691406 1347.503906 845.550781 1347.535156 844.414062 1347.539062 L 345.507812 1347.539062 C 344.367188 1347.539062 343.222656 1347.511719 342.082031 1347.457031 C 340.941406 1347.398438 339.804688 1347.316406 338.664062 1347.203125 C 337.527344 1347.09375 336.394531 1346.953125 335.265625 1346.785156 C 334.136719 1346.617188 333.007812 1346.425781 331.890625 1346.203125 C 330.769531 1345.980469 329.652344 1345.730469 328.546875 1345.453125 C 327.4375 1345.175781 326.335938 1344.871094 325.242188 1344.539062 C 324.148438 1344.210938 323.0625 1343.851562 321.988281 1343.46875 C 320.910156 1343.082031 319.847656 1342.671875 318.789062 1342.238281 C 317.734375 1341.800781 316.6875 1341.339844 315.65625 1340.851562 C 314.621094 1340.363281 313.601562 1339.851562 312.59375 1339.3125 C 311.585938 1338.777344 310.589844 1338.214844 309.609375 1337.628906 C 308.628906 1337.042969 307.664062 1336.433594 306.710938 1335.800781 C 305.761719 1335.164062 304.828125 1334.507812 303.910156 1333.828125 C 302.988281 1333.148438 302.089844 1332.449219 301.203125 1331.726562 C 300.320312 1331 299.453125 1330.257812 298.605469 1329.492188 C 297.757812 1328.726562 296.929688 1327.9375 296.121094 1327.132812 C 295.308594 1326.324219 294.519531 1325.5 293.75 1324.65625 C 292.984375 1323.808594 292.234375 1322.945312 291.507812 1322.0625 C 290.78125 1321.183594 290.078125 1320.28125 289.394531 1319.367188 C 288.710938 1318.449219 288.050781 1317.519531 287.414062 1316.570312 C 286.777344 1315.621094 286.164062 1314.65625 285.574219 1313.679688 C 284.984375 1312.699219 284.417969 1311.707031 283.878906 1310.699219 C 283.335938 1309.695312 282.820312 1308.675781 282.328125 1307.644531 C 281.839844 1306.609375 281.371094 1305.566406 280.933594 1304.511719 C 280.492188 1303.457031 280.078125 1302.394531 279.691406 1301.320312 C 279.300781 1300.246094 278.941406 1299.160156 278.605469 1298.066406 C 278.269531 1296.976562 277.960938 1295.875 277.679688 1294.769531 C 277.398438 1293.660156 277.144531 1292.546875 276.917969 1291.425781 C 276.691406 1290.304688 276.492188 1289.179688 276.320312 1288.050781 C 276.148438 1286.921875 276.007812 1285.789062 275.890625 1284.652344 C 275.773438 1283.515625 275.6875 1282.375 275.625 1281.234375 C 275.566406 1280.09375 275.535156 1278.949219 275.527344 1277.808594 L 275.527344 549.078125 L 914.125 549.078125 Z M 914.125 1277.808594 "
              fill-opacity="1" fill-rule="nonzero"/>
    </g>
    <path fill="#000000"
          d="M 461.785156 668.582031 C 460.042969 668.582031 458.304688 668.667969 456.570312 668.835938 C 454.835938 669.007812 453.113281 669.265625 451.40625 669.605469 C 449.695312 669.945312 448.007812 670.367188 446.339844 670.875 C 444.671875 671.378906 443.03125 671.964844 441.421875 672.632812 C 439.8125 673.300781 438.238281 674.046875 436.699219 674.867188 C 435.164062 675.6875 433.671875 676.582031 432.222656 677.550781 C 430.773438 678.519531 429.375 679.558594 428.027344 680.664062 C 426.679688 681.769531 425.390625 682.9375 424.15625 684.171875 C 422.925781 685.40625 421.753906 686.695312 420.648438 688.042969 C 419.542969 689.390625 418.507812 690.789062 417.539062 692.238281 C 416.570312 693.6875 415.675781 695.183594 414.855469 696.71875 C 414.03125 698.257812 413.289062 699.832031 412.621094 701.441406 C 411.953125 703.050781 411.367188 704.691406 410.863281 706.359375 C 410.355469 708.027344 409.933594 709.71875 409.59375 711.425781 C 409.253906 713.136719 408.996094 714.859375 408.828125 716.59375 C 408.65625 718.328125 408.570312 720.070312 408.570312 721.8125 L 408.570312 1200.890625 C 408.570312 1202.632812 408.65625 1204.371094 408.828125 1206.105469 C 408.996094 1207.839844 409.253906 1209.5625 409.59375 1211.273438 C 409.933594 1212.984375 410.355469 1214.671875 410.863281 1216.339844 C 411.367188 1218.007812 411.953125 1219.648438 412.621094 1221.257812 C 413.289062 1222.871094 414.03125 1224.445312 414.855469 1225.980469 C 415.675781 1227.519531 416.570312 1229.011719 417.539062 1230.460938 C 418.507812 1231.910156 419.542969 1233.3125 420.648438 1234.660156 C 421.753906 1236.007812 422.925781 1237.296875 424.15625 1238.527344 C 425.390625 1239.761719 426.679688 1240.929688 428.027344 1242.035156 C 429.375 1243.144531 430.773438 1244.179688 432.222656 1245.148438 C 433.671875 1246.117188 435.164062 1247.011719 436.699219 1247.835938 C 438.238281 1248.65625 439.8125 1249.402344 441.421875 1250.066406 C 443.03125 1250.734375 444.671875 1251.320312 446.339844 1251.828125 C 448.007812 1252.332031 449.695312 1252.757812 451.40625 1253.097656 C 453.113281 1253.4375 454.835938 1253.691406 456.570312 1253.863281 C 458.304688 1254.035156 460.042969 1254.121094 461.785156 1254.121094 C 463.53125 1254.121094 465.269531 1254.035156 467.003906 1253.863281 C 468.738281 1253.691406 470.460938 1253.4375 472.167969 1253.097656 C 473.878906 1252.757812 475.566406 1252.332031 477.234375 1251.828125 C 478.902344 1251.320312 480.542969 1250.734375 482.152344 1250.066406 C 483.761719 1249.402344 485.335938 1248.65625 486.871094 1247.835938 C 488.410156 1247.011719 489.902344 1246.117188 491.351562 1245.148438 C 492.800781 1244.179688 494.199219 1243.144531 495.546875 1242.035156 C 496.894531 1240.929688 498.183594 1239.761719 499.417969 1238.527344 C 500.648438 1237.296875 501.816406 1236.007812 502.921875 1234.660156 C 504.027344 1233.3125 505.066406 1231.910156 506.035156 1230.460938 C 507.003906 1229.011719 507.898438 1227.519531 508.71875 1225.980469 C 509.539062 1224.445312 510.285156 1222.871094 510.953125 1221.257812 C 511.617188 1219.648438 512.207031 1218.007812 512.710938 1216.339844 C 513.21875 1214.671875 513.640625 1212.984375 513.980469 1211.273438 C 514.320312 1209.5625 514.574219 1207.839844 514.746094 1206.105469 C 514.917969 1204.371094 515.003906 1202.632812 515.003906 1200.890625 L 515.003906 721.8125 C 515.003906 720.070312 514.917969 718.328125 514.746094 716.59375 C 514.574219 714.859375 514.320312 713.136719 513.980469 711.425781 C 513.640625 709.71875 513.21875 708.027344 512.710938 706.359375 C 512.207031 704.691406 511.617188 703.050781 510.953125 701.441406 C 510.285156 699.832031 509.539062 698.257812 508.71875 696.71875 C 507.898438 695.183594 507.003906 693.6875 506.035156 692.238281 C 505.066406 690.789062 504.027344 689.390625 502.921875 688.042969 C 501.816406 686.695312 500.648438 685.40625 499.417969 684.171875 C 498.183594 682.9375 496.894531 681.769531 495.546875 680.664062 C 494.199219 679.558594 492.800781 678.519531 491.351562 677.550781 C 489.902344 676.582031 488.410156 675.6875 486.871094 674.867188 C 485.335938 674.042969 483.761719 673.300781 482.152344 672.632812 C 480.542969 671.964844 478.902344 671.378906 477.234375 670.875 C 475.566406 670.367188 473.878906 669.945312 472.167969 669.605469 C 470.460938 669.265625 468.738281 669.007812 467.003906 668.835938 C 465.269531 668.667969 463.53125 668.582031 461.785156 668.582031 Z M 461.785156 668.582031 "
          fill-opacity="1" fill-rule="nonzero"/>
    <path fill="#000000"
          d="M 727.867188 668.582031 C 726.125 668.582031 724.386719 668.667969 722.652344 668.835938 C 720.917969 669.007812 719.195312 669.265625 717.488281 669.605469 C 715.777344 669.945312 714.089844 670.367188 712.421875 670.875 C 710.753906 671.378906 709.113281 671.964844 707.503906 672.632812 C 705.894531 673.300781 704.320312 674.046875 702.78125 674.867188 C 701.246094 675.6875 699.753906 676.582031 698.304688 677.550781 C 696.855469 678.519531 695.457031 679.558594 694.109375 680.664062 C 692.761719 681.769531 691.472656 682.9375 690.238281 684.171875 C 689.007812 685.40625 687.835938 686.695312 686.730469 688.042969 C 685.625 689.390625 684.589844 690.789062 683.621094 692.238281 C 682.652344 693.6875 681.757812 695.183594 680.9375 696.71875 C 680.113281 698.257812 679.371094 699.832031 678.703125 701.441406 C 678.035156 703.050781 677.449219 704.691406 676.945312 706.359375 C 676.4375 708.027344 676.015625 709.71875 675.675781 711.425781 C 675.335938 713.136719 675.078125 714.859375 674.910156 716.59375 C 674.738281 718.328125 674.652344 720.070312 674.652344 721.8125 L 674.652344 1200.890625 C 674.652344 1202.632812 674.738281 1204.371094 674.910156 1206.105469 C 675.078125 1207.839844 675.335938 1209.5625 675.675781 1211.273438 C 676.015625 1212.984375 676.4375 1214.671875 676.945312 1216.339844 C 677.449219 1218.007812 678.035156 1219.648438 678.703125 1221.257812 C 679.371094 1222.871094 680.113281 1224.445312 680.9375 1225.980469 C 681.757812 1227.519531 682.652344 1229.011719 683.621094 1230.460938 C 684.589844 1231.910156 685.625 1233.3125 686.730469 1234.660156 C 687.835938 1236.007812 689.007812 1237.296875 690.238281 1238.527344 C 691.472656 1239.761719 692.761719 1240.929688 694.109375 1242.035156 C 695.457031 1243.144531 696.855469 1244.179688 698.304688 1245.148438 C 699.753906 1246.117188 701.246094 1247.011719 702.78125 1247.835938 C 704.320312 1248.65625 705.894531 1249.402344 707.503906 1250.066406 C 709.113281 1250.734375 710.753906 1251.320312 712.421875 1251.828125 C 714.089844 1252.332031 715.777344 1252.757812 717.488281 1253.097656 C 719.195312 1253.4375 720.917969 1253.691406 722.652344 1253.863281 C 724.386719 1254.035156 726.125 1254.121094 727.867188 1254.121094 C 729.613281 1254.121094 731.351562 1254.035156 733.085938 1253.863281 C 734.820312 1253.691406 736.542969 1253.4375 738.25 1253.097656 C 739.960938 1252.757812 741.648438 1252.332031 743.316406 1251.828125 C 744.984375 1251.320312 746.625 1250.734375 748.234375 1250.066406 C 749.84375 1249.402344 751.417969 1248.65625 752.953125 1247.835938 C 754.492188 1247.011719 755.984375 1246.117188 757.433594 1245.148438 C 758.882812 1244.179688 760.28125 1243.144531 761.628906 1242.035156 C 762.976562 1240.929688 764.265625 1239.761719 765.5 1238.527344 C 766.730469 1237.296875 767.898438 1236.007812 769.003906 1234.660156 C 770.113281 1233.3125 771.148438 1231.910156 772.117188 1230.460938 C 773.085938 1229.011719 773.980469 1227.519531 774.800781 1225.980469 C 775.625 1224.445312 776.367188 1222.871094 777.035156 1221.257812 C 777.703125 1219.648438 778.289062 1218.007812 778.792969 1216.339844 C 779.300781 1214.671875 779.722656 1212.984375 780.0625 1211.273438 C 780.402344 1209.5625 780.65625 1207.839844 780.828125 1206.105469 C 781 1204.371094 781.085938 1202.632812 781.085938 1200.890625 L 781.085938 721.8125 C 781.085938 720.070312 781 718.328125 780.828125 716.59375 C 780.65625 714.859375 780.402344 713.136719 780.0625 711.425781 C 779.722656 709.71875 779.300781 708.027344 778.792969 706.359375 C 778.289062 704.691406 777.703125 703.050781 777.035156 701.441406 C 776.367188 699.832031 775.625 698.257812 774.800781 696.71875 C 773.980469 695.183594 773.085938 693.6875 772.117188 692.238281 C 771.148438 690.789062 770.113281 689.390625 769.003906 688.042969 C 767.898438 686.695312 766.730469 685.40625 765.5 684.171875 C 764.265625 682.9375 762.976562 681.769531 761.628906 680.664062 C 760.28125 679.558594 758.882812 678.519531 757.433594 677.550781 C 755.984375 676.582031 754.492188 675.6875 752.953125 674.867188 C 751.417969 674.042969 749.84375 673.300781 748.234375 672.632812 C 746.625 671.964844 744.984375 671.378906 743.316406 670.875 C 741.648438 670.367188 739.960938 669.945312 738.25 669.605469 C 736.542969 669.265625 734.820312 669.007812 733.085938 668.835938 C 731.351562 668.667969 729.613281 668.582031 727.867188 668.582031 Z M 727.867188 668.582031 "
          fill-opacity="1" fill-rule="nonzero"/>
</svg>