<svg xmlns="http://www.w3.org/2000/svg" xmlns:xlink="http://www.w3.org/1999/xlink" width="1587" zoomAndPan="magnify" viewBox="0 0 1190.25 1683.749945" height="2245" preserveAspectRatio="xMidYMid meet" version="1.0"><defs><clipPath id="0410646282"><path d="M 0 0.40625 L 1189.5 0.40625 L 1189.5 1683.09375 L 0 1683.09375 Z M 0 0.40625 " clip-rule="nonzero"/></clipPath><clipPath id="f55e924b8d"><path d="M 18 264.632812 L 1165 264.632812 L 1165 1413 L 18 1413 Z M 18 264.632812 " clip-rule="nonzero"/></clipPath></defs><g clip-path="url(#0410646282)"><path fill="#ffffff" d="M 0 0.40625 L 1189.5 0.40625 L 1189.5 1683.09375 L 0 1683.09375 Z M 0 0.40625 " fill-opacity="1" fill-rule="nonzero"/><path fill="#ffffff" d="M 0 0.40625 L 1189.5 0.40625 L 1189.5 1683.09375 L 0 1683.09375 Z M 0 0.40625 " fill-opacity="1" fill-rule="nonzero"/></g><g clip-path="url(#f55e924b8d)"><path fill="#000000" d="M 759.675781 1108.6875 L 1042.390625 1391.308594 C 1070.382812 1419.289062 1115.839844 1419.28125 1143.832031 1391.289062 C 1171.816406 1363.289062 1171.808594 1317.832031 1143.816406 1289.84375 L 861.289062 1007.417969 C 918.125 930.113281 951.71875 834.648438 951.71875 731.390625 C 951.71875 473.777344 742.574219 264.628906 484.957031 264.628906 C 227.34375 264.628906 18.195312 473.777344 18.195312 731.390625 C 18.195312 989.007812 227.34375 1198.152344 484.957031 1198.152344 C 587.621094 1198.152344 682.578125 1164.945312 759.675781 1108.6875 Z M 484.957031 408.09375 C 663.394531 408.09375 808.265625 552.957031 808.265625 731.390625 C 808.265625 909.828125 663.394531 1054.699219 484.957031 1054.699219 C 306.523438 1054.699219 161.660156 909.828125 161.660156 731.390625 C 161.660156 552.957031 306.523438 408.09375 484.957031 408.09375 Z M 484.957031 408.09375 " fill-opacity="1" fill-rule="evenodd"/></g></svg>