<svg xmlns="http://www.w3.org/2000/svg" xmlns:xlink="http://www.w3.org/1999/xlink" width="1587" zoomAndPan="magnify" viewBox="0 0 1190.25 1683.749949" height="2245" preserveAspectRatio="xMidYMid meet" version="1.0"><defs><clipPath id="24bc06f02a"><path d="M 0 0.40625 L 1189.5 0.40625 L 1189.5 1683.09375 L 0 1683.09375 Z M 0 0.40625 " clip-rule="nonzero"/></clipPath><clipPath id="b2811d9452"><path d="M 44.917969 329 L 1145.226562 329 L 1145.226562 1354.886719 L 44.917969 1354.886719 Z M 44.917969 329 " clip-rule="nonzero"/></clipPath></defs><g clip-path="url(#24bc06f02a)"><path fill="#ffffff" d="M 0 0.40625 L 1189.5 0.40625 L 1189.5 1683.09375 L 0 1683.09375 Z M 0 0.40625 " fill-opacity="1" fill-rule="nonzero"/><path fill="#ffffff" d="M 0 0.40625 L 1189.5 0.40625 L 1189.5 1683.09375 L 0 1683.09375 Z M 0 0.40625 " fill-opacity="1" fill-rule="nonzero"/></g><g clip-path="url(#b2811d9452)"><path fill="#000000" d="M 206.730469 1030.578125 L 206.730469 1138.429688 C 206.726562 1140.113281 206.765625 1141.792969 206.84375 1143.472656 C 206.921875 1145.152344 207.039062 1146.828125 207.195312 1148.5 C 207.351562 1150.175781 207.546875 1151.84375 207.785156 1153.507812 C 208.019531 1155.171875 208.292969 1156.832031 208.601562 1158.484375 C 208.914062 1160.136719 209.265625 1161.777344 209.65625 1163.414062 C 210.042969 1165.050781 210.46875 1166.675781 210.933594 1168.289062 C 211.402344 1169.90625 211.902344 1171.511719 212.441406 1173.101562 C 212.984375 1174.695312 213.558594 1176.273438 214.171875 1177.835938 C 214.789062 1179.402344 215.4375 1180.953125 216.125 1182.488281 C 216.808594 1184.023438 217.53125 1185.539062 218.289062 1187.039062 C 219.046875 1188.542969 219.839844 1190.023438 220.664062 1191.488281 C 221.492188 1192.953125 222.351562 1194.394531 223.246094 1195.820312 C 224.140625 1197.242188 225.066406 1198.644531 226.027344 1200.023438 C 226.988281 1201.40625 227.976562 1202.761719 229 1204.097656 C 230.023438 1205.429688 231.078125 1206.738281 232.164062 1208.023438 C 233.246094 1209.308594 234.359375 1210.566406 235.503906 1211.800781 C 236.648438 1213.035156 237.820312 1214.238281 239.019531 1215.417969 C 240.21875 1216.59375 241.445312 1217.742188 242.699219 1218.863281 C 243.949219 1219.984375 245.230469 1221.074219 246.535156 1222.136719 C 247.839844 1223.195312 249.167969 1224.226562 250.519531 1225.226562 C 251.871094 1226.222656 253.246094 1227.191406 254.644531 1228.125 C 256.042969 1229.058594 257.460938 1229.960938 258.902344 1230.828125 C 260.339844 1231.695312 261.800781 1232.53125 263.28125 1233.328125 C 264.757812 1234.128906 266.253906 1234.894531 267.769531 1235.625 C 269.285156 1236.355469 270.816406 1237.046875 272.363281 1237.707031 C 273.910156 1238.363281 275.472656 1238.988281 277.046875 1239.570312 C 278.625 1240.15625 280.214844 1240.707031 281.816406 1241.214844 C 283.417969 1241.726562 285.03125 1242.199219 286.652344 1242.636719 C 288.277344 1243.070312 289.910156 1243.46875 291.554688 1243.828125 C 293.195312 1244.1875 294.847656 1244.507812 296.503906 1244.789062 C 298.160156 1245.070312 299.824219 1245.316406 301.492188 1245.519531 C 303.160156 1245.722656 304.835938 1245.886719 306.511719 1246.015625 L 314.601562 1246.285156 L 476.410156 1246.285156 L 476.410156 1354.136719 L 314.601562 1354.136719 C 311.070312 1354.136719 307.542969 1354.050781 304.015625 1353.878906 C 300.488281 1353.703125 296.96875 1353.445312 293.457031 1353.097656 C 289.941406 1352.753906 286.4375 1352.320312 282.945312 1351.804688 C 279.453125 1351.285156 275.976562 1350.679688 272.511719 1349.992188 C 269.050781 1349.304688 265.605469 1348.53125 262.179688 1347.671875 C 258.753906 1346.816406 255.351562 1345.875 251.972656 1344.847656 C 248.59375 1343.824219 245.242188 1342.71875 241.917969 1341.527344 C 238.59375 1340.339844 235.300781 1339.070312 232.039062 1337.71875 C 228.777344 1336.367188 225.550781 1334.9375 222.359375 1333.425781 C 219.167969 1331.917969 216.015625 1330.332031 212.898438 1328.667969 C 209.785156 1327.003906 206.714844 1325.261719 203.6875 1323.449219 C 200.65625 1321.632812 197.675781 1319.746094 194.738281 1317.785156 C 191.804688 1315.824219 188.917969 1313.789062 186.082031 1311.6875 C 183.246094 1309.585938 180.464844 1307.414062 177.734375 1305.175781 C 175.003906 1302.933594 172.332031 1300.628906 169.714844 1298.257812 C 167.097656 1295.886719 164.542969 1293.453125 162.046875 1290.957031 C 159.550781 1288.460938 157.117188 1285.90625 154.746094 1283.289062 C 152.375 1280.675781 150.066406 1278.003906 147.828125 1275.273438 C 145.585938 1272.542969 143.417969 1269.761719 141.3125 1266.925781 C 139.210938 1264.089844 137.175781 1261.207031 135.214844 1258.269531 C 133.253906 1255.335938 131.367188 1252.355469 129.550781 1249.324219 C 127.734375 1246.296875 125.996094 1243.226562 124.332031 1240.113281 C 122.667969 1237 121.078125 1233.847656 119.570312 1230.65625 C 118.058594 1227.464844 116.628906 1224.238281 115.277344 1220.976562 C 113.925781 1217.714844 112.65625 1214.425781 111.46875 1211.101562 C 110.277344 1207.777344 109.171875 1204.425781 108.144531 1201.046875 C 107.121094 1197.667969 106.179688 1194.265625 105.320312 1190.84375 C 104.464844 1187.417969 103.691406 1183.976562 103 1180.511719 C 102.3125 1177.050781 101.707031 1173.574219 101.191406 1170.082031 C 100.671875 1166.589844 100.242188 1163.085938 99.894531 1159.574219 C 99.546875 1156.058594 99.289062 1152.539062 99.117188 1149.015625 C 98.941406 1145.488281 98.855469 1141.960938 98.855469 1138.429688 L 98.855469 1030.578125 Z M 907.90625 760.941406 L 1145.226562 1354.136719 L 1028.992188 1354.136719 L 964.214844 1192.355469 L 743.613281 1192.355469 L 678.945312 1354.136719 L 562.765625 1354.136719 L 800.03125 760.941406 Z M 853.96875 916.523438 L 786.710938 1084.503906 L 921.121094 1084.503906 Z M 368.539062 329.527344 L 368.539062 437.382812 L 584.285156 437.382812 L 584.285156 814.871094 L 368.539062 814.871094 L 368.539062 976.648438 L 260.664062 976.648438 L 260.664062 814.871094 L 44.917969 814.871094 L 44.917969 437.382812 L 260.664062 437.382812 L 260.664062 329.527344 Z M 853.96875 383.457031 C 857.5 383.457031 861.027344 383.542969 864.554688 383.714844 C 868.082031 383.890625 871.601562 384.148438 875.113281 384.496094 C 878.628906 384.839844 882.132812 385.273438 885.625 385.789062 C 889.117188 386.308594 892.59375 386.910156 896.058594 387.601562 C 899.519531 388.289062 902.964844 389.0625 906.390625 389.921875 C 909.816406 390.777344 913.21875 391.71875 916.597656 392.746094 C 919.976562 393.769531 923.328125 394.875 926.652344 396.066406 C 929.976562 397.253906 933.269531 398.523438 936.53125 399.875 C 939.792969 401.226562 943.019531 402.65625 946.210938 404.167969 C 949.402344 405.675781 952.554688 407.261719 955.671875 408.925781 C 958.785156 410.589844 961.855469 412.328125 964.882812 414.144531 C 967.914062 415.960938 970.894531 417.847656 973.832031 419.808594 C 976.765625 421.769531 979.652344 423.800781 982.488281 425.90625 C 985.324219 428.007812 988.105469 430.179688 990.835938 432.417969 C 993.566406 434.660156 996.238281 436.964844 998.855469 439.335938 C 1001.46875 441.707031 1004.027344 444.140625 1006.523438 446.636719 C 1009.019531 449.132812 1011.453125 451.6875 1013.824219 454.304688 C 1016.195312 456.917969 1018.503906 459.589844 1020.742188 462.320312 C 1022.980469 465.046875 1025.152344 467.832031 1027.257812 470.667969 C 1029.359375 473.5 1031.394531 476.386719 1033.355469 479.324219 C 1035.316406 482.257812 1037.203125 485.238281 1039.019531 488.265625 C 1040.835938 491.296875 1042.574219 494.367188 1044.238281 497.480469 C 1045.902344 500.59375 1047.492188 503.746094 1049 506.9375 C 1050.511719 510.128906 1051.941406 513.355469 1053.292969 516.617188 C 1054.644531 519.875 1055.914062 523.167969 1057.101562 526.492188 C 1058.292969 529.816406 1059.398438 533.167969 1060.425781 536.546875 C 1061.449219 539.925781 1062.390625 543.324219 1063.25 546.75 C 1064.105469 550.175781 1064.878906 553.617188 1065.570312 557.082031 C 1066.257812 560.542969 1066.859375 564.019531 1067.378906 567.511719 C 1067.898438 571.003906 1068.328125 574.507812 1068.675781 578.019531 C 1069.023438 581.535156 1069.28125 585.054688 1069.453125 588.578125 C 1069.628906 592.105469 1069.714844 595.632812 1069.714844 599.164062 L 1069.714844 707.015625 L 961.839844 707.015625 L 961.839844 599.164062 C 961.839844 597.398438 961.796875 595.632812 961.710938 593.871094 C 961.625 592.109375 961.496094 590.347656 961.320312 588.589844 C 961.148438 586.835938 960.933594 585.082031 960.671875 583.335938 C 960.414062 581.589844 960.113281 579.851562 959.769531 578.121094 C 959.425781 576.390625 959.039062 574.667969 958.609375 572.957031 C 958.179688 571.246094 957.707031 569.542969 957.195312 567.855469 C 956.683594 566.164062 956.128906 564.488281 955.535156 562.828125 C 954.941406 561.167969 954.304688 559.519531 953.628906 557.890625 C 952.953125 556.257812 952.238281 554.644531 951.484375 553.050781 C 950.730469 551.453125 949.9375 549.878906 949.105469 548.320312 C 948.269531 546.765625 947.402344 545.230469 946.492188 543.714844 C 945.585938 542.203125 944.640625 540.710938 943.660156 539.242188 C 942.679688 537.773438 941.664062 536.332031 940.613281 534.914062 C 939.5625 533.496094 938.476562 532.105469 937.355469 530.742188 C 936.234375 529.378906 935.082031 528.039062 933.898438 526.734375 C 932.710938 525.425781 931.492188 524.148438 930.246094 522.898438 C 928.996094 521.652344 927.71875 520.433594 926.410156 519.25 C 925.101562 518.0625 923.765625 516.910156 922.402344 515.792969 C 921.039062 514.671875 919.644531 513.585938 918.226562 512.535156 C 916.808594 511.484375 915.367188 510.464844 913.898438 509.484375 C 912.429688 508.503906 910.941406 507.5625 909.425781 506.652344 C 907.910156 505.746094 906.375 504.875 904.820312 504.042969 C 903.261719 503.210938 901.6875 502.417969 900.089844 501.664062 C 898.492188 500.910156 896.878906 500.195312 895.25 499.519531 C 893.617188 498.84375 891.972656 498.207031 890.308594 497.613281 C 888.648438 497.019531 886.972656 496.464844 885.28125 495.953125 C 883.59375 495.441406 881.890625 494.96875 880.179688 494.542969 C 878.464844 494.113281 876.746094 493.726562 875.011719 493.382812 C 873.28125 493.039062 871.542969 492.734375 869.796875 492.476562 C 868.050781 492.21875 866.296875 492 864.542969 491.828125 C 862.785156 491.65625 861.023438 491.527344 859.261719 491.4375 C 857.496094 491.351562 855.734375 491.308594 853.96875 491.308594 L 692.160156 491.308594 L 692.160156 383.457031 Z M 260.664062 545.234375 L 152.792969 545.234375 L 152.792969 707.015625 L 260.664062 707.015625 Z M 476.410156 545.234375 L 368.539062 545.234375 L 368.539062 707.015625 L 476.410156 707.015625 Z M 476.410156 545.234375 " fill-opacity="1" fill-rule="nonzero"/></g></svg>